<?xml version="1.0" standalone="no"?>
<!DOCTYPE svg PUBLIC "-//W3C//DTD SVG 20010904//EN"
 "http://www.w3.org/TR/2001/REC-SVG-20010904/DTD/svg10.dtd">
<svg version="1.0" xmlns="http://www.w3.org/2000/svg"
 width="1280.000000pt" height="1248.000000pt" viewBox="0 0 1280.000000 1248.000000"
 preserveAspectRatio="xMidYMid meet">
<g transform="translate(0.000000,1248.000000) scale(0.100000,-0.100000)"
fill="#FFFFFF" stroke="none">
<path d="M1534 12329 c-41 -83 -73 -157 -71 -163 3 -7 366 -218 808 -471 442
-252 817 -467 833 -478 l29 -20 -7 -126 c-18 -331 -90 -630 -212 -874 -158
-316 -409 -587 -725 -782 -49 -30 -97 -55 -108 -55 -10 0 -389 212 -841 470
-452 259 -826 470 -831 470 -5 0 -25 -32 -44 -70 l-35 -70 29 -85 c127 -359
323 -720 528 -975 326 -405 774 -685 1318 -825 236 -60 469 -91 790 -104 183
-7 205 -10 265 -35 257 -105 677 -433 1279 -1000 59 -55 267 -257 464 -449
l359 -350 631 631 630 631 -374 383 c-681 696 -1003 1046 -1284 1398 -233 293
-354 478 -393 607 -17 56 -22 105 -26 278 -10 386 -48 646 -132 908 -251 780
-923 1175 -2162 1271 -341 27 -486 36 -564 36 l-78 0 -76 -151z"/>
<path d="M10800 11510 c-432 -303 -788 -558 -792 -568 -4 -9 -37 -136 -73
-282 -36 -146 -71 -283 -76 -305 -9 -35 -287 -316 -2327 -2357 -1274 -1275
-2324 -2318 -2332 -2318 -9 0 -153 86 -320 190 -167 105 -309 190 -315 190 -6
0 -79 -69 -163 -153 -138 -138 -152 -156 -152 -187 0 -75 -31 -236 -66 -341
-37 -112 -104 -239 -176 -337 -271 -367 -793 -664 -1271 -725 l-97 -12 -1321
-1320 -1320 -1320 4 -40 c52 -418 244 -789 575 -1106 312 -300 652 -467 1047
-516 l40 -4 1320 1320 1320 1321 12 97 c62 485 359 1002 737 1280 91 67 211
128 328 168 101 34 263 65 338 65 32 0 49 14 189 154 143 143 154 157 144 178
-6 13 -92 153 -192 313 -100 159 -181 296 -181 305 0 8 1043 1058 2318 2332
2041 2040 2322 2318 2357 2327 22 5 165 41 319 80 153 38 282 73 286 78 10 11
1073 1532 1091 1561 13 21 5 31 -216 252 -126 127 -234 230 -240 230 -5 0
-363 -248 -795 -550z"/>
<path d="M6965 5990 l-630 -630 280 -282 c1190 -1200 1700 -1780 1885 -2149
60 -118 68 -160 74 -394 12 -480 81 -836 217 -1124 173 -367 489 -648 920
-819 402 -160 1055 -261 1684 -262 l121 0 74 150 c65 131 73 152 60 164 -8 7
-373 217 -810 466 -437 249 -808 462 -824 473 l-29 20 7 126 c40 742 346 1284
932 1653 51 32 102 58 112 58 11 0 390 -212 842 -470 452 -259 826 -470 831
-470 5 0 25 32 44 70 l35 70 -29 85 c-127 359 -322 719 -528 975 -326 406
-771 684 -1318 825 -235 60 -469 91 -790 104 -189 8 -204 10 -277 38 -208 82
-522 315 -969 719 -218 198 -351 326 -836 801 -242 238 -443 433 -445 433 -2
0 -287 -283 -633 -630z"/>
</g>
</svg>
